PathFileType	4	(X/Y/Z)	D:\Share\Shared_Data\Ergonomics\Sit To Stand Pertubation\S0\Perturbed STS.trc
DataRate	CameraRate	NumFrames	NumMarkers	Units	OrigDataRate	OrigDataStartFrame	OrigNumFrames	
100	100	17	18	m	100	17530	251
Frame#	Time	R_Heel			R_ASIS			R_Pelvis			V_Sacral			L_Pelvis			L_ASIS			Clavical			R_Acromium			L_Acromium			Sternum			Torso			R_Thigh_Med			R_Thigh_Lat			R_Thigh			R_Shank_Med			R_Shank_Lat			R_Shank			R_Toe			
		X1	Y1	Z1	X2	Y2	Z2	X3	Y3	Z3	X4	Y4	Z4	X5	Y5	Z5	X6	Y6	Z6	X7	Y7	Z7	X8	Y8	Z8	X9	Y9	Z9	X10	Y10	Z10	X11	Y11	Z11	X12	Y12	Z12	X13	Y13	Z13	X14	Y14	Z14	X15	Y15	Z15	X16	Y16	Z16	X17	Y17	Z17	X18	Y18	Z18	

17530	131.64	0.15451064	0.042444221	0.10922697	0.12430349	0.77760236	0.14205344	0.0063173895	0.82325073	0.18681	-0.12618066	0.83992346	-0.041102516	0.019487978	0.79340106	-0.21970975	0.13276988	0.7449231	-0.1701308	0.39196545	1.0291897	-0.019453344	0.37265631	1.1365181	0.1046319	0.37165237	1.1458551	-0.16051941	0.36468808	0.93770673	-0.039679611	0.36561896	0.9991701	-0.13702431	0.34848505	0.47707855	0.037326153	0.34510645	0.49449603	0.17222186	0.30184454	0.64345679	0.092718018	0.25822644	0.09654879	0.064594139	0.19979643	0.086277626	0.15511472	0.28288705	0.30138406	0.17947501	0.38176959	0.046582939	0.10806315
17531	131.65	0.15445224	0.042396782	0.1092306	0.12645565	0.78006165	0.14206802	0.0088610163	0.82664185	0.18713686	-0.12387427	0.84453314	-0.040526588	0.021201202	0.79707593	-0.21936868	0.13412218	0.74765973	-0.16984738	0.3939425	1.032939	-0.019656603	0.37496094	1.1404357	0.10402817	0.3739938	1.1497292	-0.1604758	0.36606412	0.94147516	-0.039719402	0.3679353	1.0029548	-0.13694772	0.34793359	0.47733948	0.036925941	0.34491602	0.49475519	0.17182233	0.3027821	0.64419666	0.092463852	0.25812164	0.096588036	0.064461731	0.19974574	0.086297523	0.15506169	0.28261234	0.30156439	0.17926262	0.38166721	0.046691788	0.10791725
17532	131.66	0.15438084	0.042343048	0.10924867	0.12853986	0.7826015	0.14212991	0.011329493	0.83008954	0.18749176	-0.12162849	0.84925171	-0.039918663	0.022849169	0.80094171	-0.21899365	0.1353886	0.75056024	-0.16955309	0.395841	1.0367853	-0.019879459	0.37716541	1.1444219	0.10342376	0.37619214	1.153683	-0.16045988	0.36740396	0.9453623	-0.039783531	0.3701445	1.0068267	-0.13683488	0.34728107	0.47763913	0.036491821	0.34461731	0.49505075	0.1713696	0.30364584	0.64497729	0.092202843	0.25798596	0.096631615	0.064344032	0.19968547	0.08631768	0.15500632	0.28226535	0.30177823	0.17903468	0.3815444	0.046804626	0.10774835
17533	131.67	0.15429379	0.042282936	0.10928287	0.13056836	0.78522034	0.14223708	0.013730723	0.83359369	0.18786847	-0.11943906	0.85405652	-0.039284912	0.024434494	0.80496722	-0.21859276	0.13657741	0.75360199	-0.16926471	0.39766779	1.0407147	-0.020112793	0.37927945	1.1484673	0.10283133	0.37826428	1.1576993	-0.16046922	0.36876584	0.94934741	-0.039867729	0.37224973	1.0107741	-0.13669315	0.34654175	0.47796967	0.036028202	0.34421878	0.49537619	0.17087152	0.3044454	0.64578326	0.091935654	0.25781186	0.096676514	0.064243332	0.19961552	0.086337257	0.15495103	0.28186234	0.30201605	0.17878871	0.38139969	0.046919235	0.10755714
17534	131.68	0.15419006	0.042216965	0.10933447	0.13255156	0.78791425	0.1423847	0.016075201	0.83715601	0.18826077	-0.11729956	0.85892676	-0.038632111	0.025960489	0.80911749	-0.21817537	0.13769809	0.75676056	-0.16899719	0.39943665	1.0447173	-0.02034651	0.38130981	1.1525635	0.10226379	0.38022131	1.1617634	-0.16050142	0.37018887	0.95341162	-0.039967888	0.37425726	1.0147867	-0.13653114	0.345724	0.47832394	0.035538795	0.34373022	0.4957269	0.17033606	0.30518787	0.6466001	0.091659439	0.25759793	0.096723099	0.064155724	0.19953555	0.086355629	0.15490108	0.28141864	0.30226828	0.17852434	0.38123312	0.04703389	0.10734348
17535	131.69	0.15406972	0.042146297	0.10940503	0.13449695	0.79067743	0.1425647	0.018374645	0.8407782	0.18866347	-0.1152025	0.86384204	-0.037965961	0.027430651	0.81335773	-0.21775011	0.13876097	0.76001282	-0.16876122	0.4011665	1.0487839	-0.020570543	0.38326077	1.1567003	0.1017333	0.38206921	1.1658611	-0.16055434	0.37169232	0.95753857	-0.040077568	0.3761745	1.0188531	-0.13635762	0.34483527	0.47869693	0.035027287	0.34316318	0.49609909	0.1697706	0.30587869	0.64741541	0.091370369	0.25734665	0.096773232	0.064075401	0.19944592	0.086372025	0.15486191	0.28094623	0.30252728	0.17824545	0.38104633	0.047147423	0.10710592
17536	131.7	0.15393307	0.042072678	0.10949646	0.13641017	0.79350427	0.14276593	0.020640877	0.84446014	0.18907295	-0.11314073	0.86878229	-0.037289722	0.028848629	0.81765546	-0.21732336	0.13977699	0.76333954	-0.16856139	0.40287582	1.0529054	-0.020775974	0.38513519	1.1608691	0.10125073	0.38381018	1.1699813	-0.16062556	0.37327472	0.96171423	-0.040187378	0.37800781	1.022962	-0.13617989	0.34388449	0.47908664	0.034498119	0.34253134	0.49648898	0.16918166	0.30652216	0.64821747	0.091064926	0.25706271	0.096828285	0.063998482	0.19934766	0.086385719	0.15483742	0.28045346	0.30278821	0.17795865	0.38084238	0.047258976	0.10684187
17537	131.71	0.1537802	0.041998177	0.10961034	0.13829829	0.79639093	0.14297585	0.022884718	0.84819843	0.18948726	-0.11110854	0.87372699	-0.036604115	0.030218758	0.82198193	-0.21689864	0.14075722	0.76672614	-0.16839671	0.40457654	1.0570735	-0.020956209	0.3869353	1.165062	0.10082543	0.38544449	1.1741168	-0.1607124	0.37491495	0.96592694	-0.040286697	0.37976175	1.027103	-0.13600272	0.34287692	0.47948984	0.033956367	0.34185019	0.49689294	0.16857507	0.30712097	0.648995	0.090739983	0.2567522	0.096889038	0.063922829	0.19924214	0.086396187	0.15482925	0.27994714	0.30304825	0.17767	0.3806257	0.047367435	0.10654878
17538	131.72	0.15361163	0.041925049	0.10974705	0.14017133	0.79933459	0.14318321	0.025115053	0.85198499	0.18990581	-0.10910166	0.87865521	-0.035908375	0.031546518	0.82631299	-0.21647716	0.14171251	0.77016174	-0.16826239	0.40626935	1.0612803	-0.021107916	0.38866144	1.169275	0.1004645	0.38697141	1.1782643	-0.16081201	0.37657864	0.97016791	-0.040366676	0.38143973	1.0312681	-0.1358286	0.3418089	0.47989856	0.0334072	0.3411362	0.49730783	0.16795708	0.30767725	0.64973694	0.090392204	0.25642267	0.096955643	0.063847191	0.19913095	0.086403259	0.15483705	0.27943311	0.30330646	0.17738396	0.38040173	0.047470234	0.10622585
17539	131.73	0.15343053	0.04185553	0.10990528	0.14204027	0.80232996	0.14338081	0.027338385	0.85580719	0.19032901	-0.1071168	0.88354541	-0.03520129	0.032838581	0.83062897	-0.21605864	0.14265306	0.773638	-0.16815187	0.40794275	1.0655203	-0.021231207	0.39031177	1.1735062	0.10017165	0.38839023	1.182424	-0.16092166	0.37822784	0.97443201	-0.04042234	0.38304416	1.0354521	-0.13565862	0.34067032	0.4802995	0.032855728	0.34040585	0.4977301	0.16733456	0.30819315	0.65043414	0.090019035	0.25608261	0.097027069	0.06377116	0.19901588	0.08640667	0.15485919	0.27891693	0.30356293	0.17710396	0.38017752	0.047562492	0.1058755
17540	131.74	0.15324423	0.041791447	0.11008228	0.14391228	0.80536664	0.14356647	0.029558971	0.85964856	0.19075824	-0.10515114	0.88837585	-0.034481277	0.034102272	0.83491437	-0.21564221	0.14358833	0.77714728	-0.16805811	0.40957761	1.0697913	-0.021328682	0.39188239	1.1777563	0.099946815	0.38970032	1.1865991	-0.16103926	0.37982956	0.97871722	-0.040452896	0.38457697	1.0396534	-0.13549402	0.33945175	0.4806767	0.032307137	0.3396748	0.49815543	0.16671477	0.30867258	0.65107947	0.089620842	0.2557404	0.097100945	0.063695595	0.19889948	0.086406044	0.15489349	0.27840353	0.30381842	0.17683304	0.37996207	0.047637009	0.10550375
17541	131.75	0.15306395	0.041733746	0.11027409	0.14578741	0.80842847	0.14374255	0.031779274	0.86349036	0.19119582	-0.10320219	0.89312622	-0.033746284	0.035345173	0.83915576	-0.21522691	0.14452698	0.78068115	-0.16797411	0.4111557	1.0740944	-0.021403925	0.39336905	1.1820282	0.099786987	0.39090063	1.1907946	-0.16116327	0.38136127	0.98302496	-0.040460941	0.38603979	1.0438738	-0.13533759	0.33815601	0.48101837	0.031767361	0.33895648	0.49857864	0.16610556	0.30912299	0.65166962	0.089202927	0.25540396	0.097173775	0.063622719	0.19878539	0.086401039	0.15493791	0.27789682	0.30407346	0.17657449	0.3797655	0.047685528	0.10511988
17542	131.76	0.15290289	0.041682125	0.11047564	0.14766013	0.81149554	0.14391508	0.034000156	0.86731213	0.19164505	-0.10126762	0.89777814	-0.032994083	0.03657465	0.84334167	-0.21481198	0.14547647	0.78423004	-0.16789281	0.4126651	1.0784335	-0.021460449	0.39476901	1.1863269	0.099688011	0.39198941	1.1950162	-0.1612928	0.38281253	0.98735913	-0.040451679	0.38743408	1.0481177	-0.13519406	0.33680927	0.4813237	0.031244463	0.33826187	0.49899429	0.16551567	0.30955823	0.65220691	0.088775703	0.25508073	0.097241898	0.063555336	0.19867851	0.086391846	0.15499048	0.27739999	0.30432745	0.17633221	0.37959753	0.04770118	0.10473544
17543	131.77	0.15277357	0.04163504	0.11068091	0.14952328	0.81454742	0.14409264	0.036220783	0.87109393	0.19210974	-0.099345467	0.90231653	-0.032223061	0.03779731	0.84746289	-0.2143958	0.14644266	0.78778369	-0.16780719	0.41409991	1.0828152	-0.021501434	0.39608218	1.1906593	0.099645889	0.39296509	1.1992711	-0.16142737	0.38418262	0.9917254	-0.040432053	0.38876129	1.0523911	-0.13506972	0.33545862	0.48160342	0.030749105	0.33759964	0.49939694	0.16495509	0.30999976	0.6527002	0.088353813	0.25477719	0.097302574	0.063496189	0.19858443	0.086379318	0.15504958	0.27691608	0.30457846	0.17611102	0.3794646	0.047681381	0.10436222
17544	131.78	0.15268486	0.041590275	0.11088362	0.151371	0.81756665	0.14428416	0.038438541	0.87481757	0.1925937	-0.097434601	0.90672937	-0.03143289	0.039018425	0.85151184	-0.2139753	0.14742969	0.7913299	-0.16771011	0.41545764	1.087246	-0.021529713	0.39731088	1.1950309	0.099657494	0.3938277	1.2035651	-0.16156635	0.38547748	0.99613013	-0.040409039	0.39002222	1.056701	-0.13497131	0.3341535	0.48187094	0.030293333	0.3369758	0.49978137	0.16443538	0.31047174	0.65316217	0.087955086	0.25449846	0.097354866	0.063447639	0.19850758	0.0863647	0.15511395	0.2764494	0.30482211	0.17591699	0.37936807	0.047629066	0.10401031
17545	131.79	0.15263882	0.041546265	0.11107864	0.15319804	0.82054144	0.14449678	0.04064888	0.8784679	0.19310045	-0.095534958	0.91100726	-0.030624985	0.040241657	0.8554823	-0.21354597	0.14844058	0.79485583	-0.16759467	0.41673764	1.0917308	-0.02154752	0.39845856	1.1994453	0.099720558	0.3945802	1.2079039	-0.16170837	0.38670538	1.0005786	-0.040387836	0.39121747	1.0610537	-0.13490469	0.33293121	0.4821347	0.02988924	0.33639417	0.5001431	0.16396977	0.31099265	0.65360321	0.087600487	0.25424713	0.097400024	0.063411808	0.19845004	0.086349075	0.15518282	0.27600513	0.30505292	0.17575697	0.37930441	0.04755146	0.10368729
17546	131.8	0.15262891	0.041503582	0.11126296	0.15499944	0.82346637	0.14473483	0.042845436	0.88203394	0.19363284	-0.09364769	0.91514307	-0.02980282	0.041469082	0.85936823	-0.21310321	0.14947751	0.79834888	-0.16745465	0.4179404	1.0962716	-0.021556028	0.39952939	1.2039025	0.099833679	0.39522806	1.2122909	-0.16185051	0.38787509	1.0050734	-0.0403703	0.3923476	1.0654526	-0.13487286	0.33181497	0.48239734	0.029548422	0.33585568	0.50047809	0.16357285	0.3115722	0.6540282	0.087313477	0.25402379	0.097440605	0.063390495	0.19841138	0.086332939	0.15525591	0.2755881	0.30526572	0.17563736	0.37926801	0.047457134	0.10339895
